<mxfile host="app.diagrams.net" modified="2023-07-08T08:44:19.266Z" agent="Mozilla/5.0 (Windows NT 10.0; Win64; x64) AppleWebKit/537.36 (KHTML, like Gecko) Chrome/114.0.0.0 Safari/537.36" etag="8FlbAl9nM-_rCj9tBoTd" version="21.6.1" type="github">
  <diagram name="Page-1" id="0783ab3e-0a74-02c8-0abd-f7b4e66b4bec">
    <mxGraphModel dx="1002" dy="622" grid="1" gridSize="10" guides="1" tooltips="1" connect="1" arrows="1" fold="1" page="1" pageScale="1" pageWidth="850" pageHeight="1100" background="none" math="0" shadow="0">
      <root>
        <mxCell id="0" />
        <mxCell id="1" parent="0" />
        <mxCell id="Io3ZU_X9akoJsGM-Tuc8-3" value="user" style="swimlane;whiteSpace=wrap;html=1;" vertex="1" parent="1">
          <mxGeometry x="50" y="100" width="200" height="560" as="geometry" />
        </mxCell>
        <mxCell id="Io3ZU_X9akoJsGM-Tuc8-8" value="" style="ellipse;html=1;shape=startState;fillColor=#000000;strokeColor=#ff0000;" vertex="1" parent="Io3ZU_X9akoJsGM-Tuc8-3">
          <mxGeometry x="80" y="30" width="30" height="30" as="geometry" />
        </mxCell>
        <mxCell id="Io3ZU_X9akoJsGM-Tuc8-9" value="" style="edgeStyle=orthogonalEdgeStyle;html=1;verticalAlign=bottom;endArrow=open;endSize=8;strokeColor=#ff0000;rounded=0;" edge="1" source="Io3ZU_X9akoJsGM-Tuc8-8" parent="Io3ZU_X9akoJsGM-Tuc8-3">
          <mxGeometry relative="1" as="geometry">
            <mxPoint x="95" y="120" as="targetPoint" />
          </mxGeometry>
        </mxCell>
        <mxCell id="Io3ZU_X9akoJsGM-Tuc8-12" value="" style="edgeStyle=orthogonalEdgeStyle;rounded=0;orthogonalLoop=1;jettySize=auto;html=1;" edge="1" parent="Io3ZU_X9akoJsGM-Tuc8-3" source="Io3ZU_X9akoJsGM-Tuc8-10" target="Io3ZU_X9akoJsGM-Tuc8-11">
          <mxGeometry relative="1" as="geometry" />
        </mxCell>
        <mxCell id="Io3ZU_X9akoJsGM-Tuc8-10" value="pilih tombol login" style="whiteSpace=wrap;html=1;" vertex="1" parent="Io3ZU_X9akoJsGM-Tuc8-3">
          <mxGeometry x="35" y="120" width="120" height="60" as="geometry" />
        </mxCell>
        <mxCell id="Io3ZU_X9akoJsGM-Tuc8-14" value="" style="edgeStyle=orthogonalEdgeStyle;rounded=0;orthogonalLoop=1;jettySize=auto;html=1;" edge="1" parent="Io3ZU_X9akoJsGM-Tuc8-3" source="Io3ZU_X9akoJsGM-Tuc8-11" target="Io3ZU_X9akoJsGM-Tuc8-13">
          <mxGeometry relative="1" as="geometry" />
        </mxCell>
        <mxCell id="Io3ZU_X9akoJsGM-Tuc8-11" value="masukan email" style="whiteSpace=wrap;html=1;" vertex="1" parent="Io3ZU_X9akoJsGM-Tuc8-3">
          <mxGeometry x="35" y="195" width="120" height="60" as="geometry" />
        </mxCell>
        <mxCell id="Io3ZU_X9akoJsGM-Tuc8-13" value="masukan password" style="whiteSpace=wrap;html=1;" vertex="1" parent="Io3ZU_X9akoJsGM-Tuc8-3">
          <mxGeometry x="35" y="269" width="120" height="60" as="geometry" />
        </mxCell>
        <mxCell id="Io3ZU_X9akoJsGM-Tuc8-33" style="edgeStyle=orthogonalEdgeStyle;rounded=0;orthogonalLoop=1;jettySize=auto;html=1;exitX=0.5;exitY=1;exitDx=0;exitDy=0;entryX=0.5;entryY=0;entryDx=0;entryDy=0;" edge="1" parent="Io3ZU_X9akoJsGM-Tuc8-3" source="Io3ZU_X9akoJsGM-Tuc8-29" target="Io3ZU_X9akoJsGM-Tuc8-32">
          <mxGeometry relative="1" as="geometry" />
        </mxCell>
        <mxCell id="Io3ZU_X9akoJsGM-Tuc8-29" value="masuk ke halaman utama" style="whiteSpace=wrap;html=1;" vertex="1" parent="Io3ZU_X9akoJsGM-Tuc8-3">
          <mxGeometry x="35" y="410" width="120" height="60" as="geometry" />
        </mxCell>
        <mxCell id="Io3ZU_X9akoJsGM-Tuc8-32" value="" style="ellipse;html=1;shape=endState;fillColor=#000000;strokeColor=#ff0000;" vertex="1" parent="Io3ZU_X9akoJsGM-Tuc8-3">
          <mxGeometry x="80" y="510" width="30" height="30" as="geometry" />
        </mxCell>
        <mxCell id="Io3ZU_X9akoJsGM-Tuc8-7" value="sistem" style="swimlane;whiteSpace=wrap;html=1;startSize=23;" vertex="1" parent="1">
          <mxGeometry x="250" y="100" width="290" height="560" as="geometry" />
        </mxCell>
        <mxCell id="Io3ZU_X9akoJsGM-Tuc8-20" style="edgeStyle=orthogonalEdgeStyle;rounded=0;orthogonalLoop=1;jettySize=auto;html=1;exitX=1;exitY=0.5;exitDx=0;exitDy=0;entryX=0;entryY=0.5;entryDx=0;entryDy=0;" edge="1" parent="Io3ZU_X9akoJsGM-Tuc8-7" source="Io3ZU_X9akoJsGM-Tuc8-15" target="Io3ZU_X9akoJsGM-Tuc8-19">
          <mxGeometry relative="1" as="geometry" />
        </mxCell>
        <mxCell id="Io3ZU_X9akoJsGM-Tuc8-15" value="cek email" style="whiteSpace=wrap;html=1;" vertex="1" parent="Io3ZU_X9akoJsGM-Tuc8-7">
          <mxGeometry x="40" y="180" width="120" height="60" as="geometry" />
        </mxCell>
        <mxCell id="Io3ZU_X9akoJsGM-Tuc8-26" value="" style="edgeStyle=orthogonalEdgeStyle;rounded=0;orthogonalLoop=1;jettySize=auto;html=1;" edge="1" parent="Io3ZU_X9akoJsGM-Tuc8-7" source="Io3ZU_X9akoJsGM-Tuc8-17" target="Io3ZU_X9akoJsGM-Tuc8-25">
          <mxGeometry relative="1" as="geometry" />
        </mxCell>
        <mxCell id="Io3ZU_X9akoJsGM-Tuc8-17" value="cek password" style="whiteSpace=wrap;html=1;" vertex="1" parent="Io3ZU_X9akoJsGM-Tuc8-7">
          <mxGeometry x="150" y="270" width="120" height="60" as="geometry" />
        </mxCell>
        <mxCell id="Io3ZU_X9akoJsGM-Tuc8-23" style="edgeStyle=orthogonalEdgeStyle;rounded=0;orthogonalLoop=1;jettySize=auto;html=1;exitX=0.5;exitY=1;exitDx=0;exitDy=0;entryX=0.5;entryY=0;entryDx=0;entryDy=0;" edge="1" parent="Io3ZU_X9akoJsGM-Tuc8-7" source="Io3ZU_X9akoJsGM-Tuc8-19" target="Io3ZU_X9akoJsGM-Tuc8-17">
          <mxGeometry relative="1" as="geometry" />
        </mxCell>
        <mxCell id="Io3ZU_X9akoJsGM-Tuc8-24" value="email benar" style="edgeLabel;html=1;align=center;verticalAlign=middle;resizable=0;points=[];" vertex="1" connectable="0" parent="Io3ZU_X9akoJsGM-Tuc8-23">
          <mxGeometry x="0.0707" y="-5" relative="1" as="geometry">
            <mxPoint x="35" y="-4" as="offset" />
          </mxGeometry>
        </mxCell>
        <mxCell id="Io3ZU_X9akoJsGM-Tuc8-19" value="" style="rhombus;whiteSpace=wrap;html=1;" vertex="1" parent="Io3ZU_X9akoJsGM-Tuc8-7">
          <mxGeometry x="190" y="190" width="40" height="40" as="geometry" />
        </mxCell>
        <mxCell id="Io3ZU_X9akoJsGM-Tuc8-27" style="edgeStyle=orthogonalEdgeStyle;rounded=0;orthogonalLoop=1;jettySize=auto;html=1;exitX=0;exitY=0.5;exitDx=0;exitDy=0;" edge="1" parent="Io3ZU_X9akoJsGM-Tuc8-7" source="Io3ZU_X9akoJsGM-Tuc8-25">
          <mxGeometry relative="1" as="geometry">
            <mxPoint x="-110.00000000000011" y="330" as="targetPoint" />
            <Array as="points">
              <mxPoint x="80" y="370" />
              <mxPoint x="-109" y="370" />
              <mxPoint x="-109" y="330" />
            </Array>
          </mxGeometry>
        </mxCell>
        <mxCell id="Io3ZU_X9akoJsGM-Tuc8-28" value="password salah" style="edgeLabel;html=1;align=center;verticalAlign=middle;resizable=0;points=[];" vertex="1" connectable="0" parent="Io3ZU_X9akoJsGM-Tuc8-27">
          <mxGeometry x="-0.4539" y="-10" relative="1" as="geometry">
            <mxPoint as="offset" />
          </mxGeometry>
        </mxCell>
        <mxCell id="Io3ZU_X9akoJsGM-Tuc8-25" value="" style="rhombus;whiteSpace=wrap;html=1;" vertex="1" parent="Io3ZU_X9akoJsGM-Tuc8-7">
          <mxGeometry x="190" y="350" width="40" height="40" as="geometry" />
        </mxCell>
        <mxCell id="Io3ZU_X9akoJsGM-Tuc8-18" style="edgeStyle=orthogonalEdgeStyle;rounded=0;orthogonalLoop=1;jettySize=auto;html=1;exitX=1;exitY=0.5;exitDx=0;exitDy=0;entryX=0;entryY=0.5;entryDx=0;entryDy=0;" edge="1" parent="1" source="Io3ZU_X9akoJsGM-Tuc8-13" target="Io3ZU_X9akoJsGM-Tuc8-15">
          <mxGeometry relative="1" as="geometry">
            <Array as="points">
              <mxPoint x="270" y="399" />
              <mxPoint x="270" y="310" />
            </Array>
          </mxGeometry>
        </mxCell>
        <mxCell id="Io3ZU_X9akoJsGM-Tuc8-21" style="edgeStyle=orthogonalEdgeStyle;rounded=0;orthogonalLoop=1;jettySize=auto;html=1;exitX=0.5;exitY=0;exitDx=0;exitDy=0;entryX=1;entryY=0.25;entryDx=0;entryDy=0;" edge="1" parent="1" source="Io3ZU_X9akoJsGM-Tuc8-19" target="Io3ZU_X9akoJsGM-Tuc8-11">
          <mxGeometry relative="1" as="geometry">
            <Array as="points">
              <mxPoint x="460" y="270" />
              <mxPoint x="230" y="270" />
              <mxPoint x="230" y="310" />
            </Array>
          </mxGeometry>
        </mxCell>
        <mxCell id="Io3ZU_X9akoJsGM-Tuc8-22" value="email salah" style="text;html=1;align=center;verticalAlign=middle;resizable=0;points=[];autosize=1;strokeColor=none;fillColor=none;" vertex="1" parent="1">
          <mxGeometry x="370" y="238" width="80" height="30" as="geometry" />
        </mxCell>
        <mxCell id="Io3ZU_X9akoJsGM-Tuc8-30" style="edgeStyle=orthogonalEdgeStyle;rounded=0;orthogonalLoop=1;jettySize=auto;html=1;exitX=0.5;exitY=1;exitDx=0;exitDy=0;entryX=1;entryY=0.5;entryDx=0;entryDy=0;" edge="1" parent="1" source="Io3ZU_X9akoJsGM-Tuc8-25" target="Io3ZU_X9akoJsGM-Tuc8-29">
          <mxGeometry relative="1" as="geometry" />
        </mxCell>
        <mxCell id="Io3ZU_X9akoJsGM-Tuc8-31" value="password benar" style="edgeLabel;html=1;align=center;verticalAlign=middle;resizable=0;points=[];" vertex="1" connectable="0" parent="Io3ZU_X9akoJsGM-Tuc8-30">
          <mxGeometry x="0.1826" y="-10" relative="1" as="geometry">
            <mxPoint as="offset" />
          </mxGeometry>
        </mxCell>
      </root>
    </mxGraphModel>
  </diagram>
</mxfile>
